# xmcd
#
# Track frame offsets: 
#        150
#        15416
#        29040
#        43206
#        60565
#        75329
#        94482
#        112478
#        127244
#        139590
#
# Disc length: 2071 seconds
#
# Revision: 2
# Processed by: cddbd v1.5.1PL0 Copyright (c) Steve Scherf et al.
# Submitted via: ExactAudioCopy v0.95a5
#
DISCID=8f08150a
DTITLE=Peter Dawson Band - Do You Don't Or Do You Do
DYEAR=2001
DGENRE=Country
TTITLE0=I Just Want To Be Me
TTITLE1=Do You Don't Or Do You Do
TTITLE2=Brand New Me
TTITLE3=Change The Things I Can
TTITLE4=Get Back To My Love
TTITLE5=Willie Nelson For President
TTITLE6=Nothing's The Same
TTITLE7=Wanda
TTITLE8=Bad News
TTITLE9=What A Way To Go
EXTD=
EXTT0=
EXTT1=
EXTT2=
EXTT3=
EXTT4=
EXTT5=
EXTT6=
EXTT7=
EXTT8=
EXTT9=
PLAYORDER=
